<svg width="55" height="48" viewBox="0 0 55 48" fill="none" xmlns="http://www.w3.org/2000/svg">
<g clip-path="url(#clip0_2930_66634)">
<path d="M23.7205 1.94039L23.7451 1.89928L0.485098 42.4419C0.16444 43.0092 0 43.6423 0 44.2754C0 46.3227 1.66906 47.9918 3.71634 47.9918H50.409C52.4563 47.9918 54.1254 46.3227 54.1254 44.2754C54.1254 43.5848 53.9363 42.9106 53.5745 42.3186L53.6074 42.3679L30.224 1.88284L30.2405 1.91572C29.5827 0.731757 28.3412 0 26.9846 0C25.628 0 24.37 0.748201 23.7205 1.94039Z" fill="white"/>
<path d="M49.6609 40.1316C50.1706 40.1316 50.5817 40.5427 50.5817 41.0525C50.5817 41.5622 50.1706 41.9733 49.6609 41.9733C49.1511 41.9733 48.74 41.5622 48.74 41.0525C48.74 40.5427 49.1511 40.1316 49.6609 40.1316ZM49.6609 41.7678C50.0226 41.7678 50.3186 41.48 50.3186 41.0525C50.3186 40.6249 50.0308 40.3371 49.6609 40.3371C49.2909 40.3371 49.0031 40.6331 49.0031 41.0525C49.0031 41.4718 49.2909 41.7678 49.6609 41.7678ZM49.2909 40.5345H49.6773C49.9404 40.5345 50.0884 40.6085 50.0884 40.8387C50.0884 41.0278 49.9733 41.1018 49.8171 41.11L50.0884 41.554H49.8664L49.6197 41.1182H49.5129V41.554H49.2909V40.5262V40.5345ZM49.6937 40.9538C49.8006 40.9538 49.8664 40.9373 49.8664 40.8222C49.8664 40.7154 49.7513 40.7071 49.6691 40.7071H49.5129V40.962H49.6937V40.9538Z" fill="#007853"/>
<path d="M3.11598 42.6968H4.27529L5.64014 46.2487H4.60417L4.34106 45.4923H3.0091L2.72955 46.2487H1.76758L3.11598 42.6968ZM3.69975 43.4285H3.69152L3.23109 44.8181H4.11907L3.69975 43.4285Z" fill="#007853"/>
<path d="M8.73194 44.9332C8.73194 45.9034 8.09884 46.3392 7.17798 46.3392C6.25712 46.3392 5.62402 45.9034 5.62402 44.9332V42.7297H6.56955V44.777C6.56955 45.2457 6.69288 45.6403 7.17798 45.6403C7.66308 45.6403 7.78641 45.2457 7.78641 44.777V42.7297H8.73194V44.9332Z" fill="#007853"/>
<path d="M9.29089 45.3691C9.53755 45.5007 9.87465 45.6075 10.2693 45.6075C10.5653 45.6075 10.8531 45.55 10.8531 45.2622C10.8531 44.6045 9.17578 45.0156 9.17578 43.7247C9.17578 42.8696 10.0062 42.6394 10.7215 42.6394C11.0586 42.6394 11.3957 42.6887 11.6342 42.771L11.5684 43.5027C11.3217 43.3876 11.0504 43.3383 10.7791 43.3383C10.5406 43.3383 10.146 43.3629 10.146 43.6672C10.146 44.2427 11.8233 43.8563 11.8233 45.1389C11.8233 46.0598 11.0504 46.3064 10.2611 46.3064C9.9322 46.3064 9.5211 46.2571 9.20045 46.1502L9.28267 45.3691H9.29089Z" fill="#007853"/>
<path d="M12.966 43.3956H12.0945V42.6968H14.7913V43.3956H13.9115V46.2487H12.966V43.3956Z" fill="#007853"/>
<path d="M15.1039 42.6803H16.7894C17.4225 42.6803 17.9323 42.9681 17.9323 43.5765C17.9323 44.0534 17.7103 44.3658 17.2499 44.4727C17.5541 44.5632 17.5787 44.8345 17.7514 45.262L18.0967 46.224H17.1101L16.9045 45.5827C16.7154 44.9743 16.5921 44.8181 16.2386 44.8181H16.0412V46.224H15.0957V42.6721L15.1039 42.6803ZM16.0495 44.1521H16.2961C16.6003 44.1521 16.9868 44.1439 16.9868 43.741C16.9868 43.4121 16.6579 43.3463 16.2961 43.3463H16.0495V44.1521Z" fill="#007853"/>
<path d="M19.5601 42.6968H20.7194L22.0842 46.2487H21.0483L20.7852 45.4923H19.4532L19.1736 46.2487H18.2117L19.5601 42.6968ZM20.1438 43.4285H20.1356L19.6752 44.8181H20.5632L20.1438 43.4285Z" fill="#007853"/>
<path d="M22.4626 42.6968H23.4082V45.5416H24.8717V46.2487H22.4626V42.6968Z" fill="#007853"/>
<path d="M26.2363 42.6968H25.2908V46.2487H26.2363V42.6968Z" fill="#007853"/>
<path d="M27.9385 42.6968H29.0978L30.4626 46.2487H29.4267L29.1636 45.4923H27.8316L27.5521 46.2487H26.5901L27.9385 42.6968ZM28.5223 43.4285H28.514L28.0536 44.8181H28.9416L28.5223 43.4285Z" fill="#007853"/>
<path d="M30.7996 42.6968H32.0082L33.2086 45.1058H33.2168L33.2004 42.6968H34.0637V46.2487H32.8962L31.6546 43.8232H31.6382L31.6711 46.2487H30.7996V42.6968Z" fill="#007853"/>
<path d="M36.2261 42.6968H37.7143L38.4625 45.0565H38.4707L39.26 42.6968H40.6988V46.2487H39.7698L39.7862 43.519H39.778L38.8736 46.2487H38.002L37.1387 43.519H37.1305L37.1469 46.2487H36.2261V42.6968Z" fill="#007853"/>
<path d="M42.2857 42.6968H43.445L44.8098 46.2487H43.7738L43.5107 45.4923H42.1788L41.8992 46.2487H40.9373L42.2857 42.6968ZM42.8694 43.4285H42.8612L42.4008 44.8181H43.2887L42.8694 43.4285Z" fill="#007853"/>
<path d="M45.188 42.6968H46.4788C47.7121 42.6968 48.5755 43.0832 48.5755 44.4563C48.5755 45.8294 47.6875 46.2487 46.4788 46.2487H45.188V42.6968ZM46.1335 45.5416H46.5035C47.2106 45.5416 47.6053 45.1798 47.6053 44.4727C47.6053 43.7656 47.1942 43.4039 46.5035 43.4039H46.1335V45.5498V45.5416Z" fill="#007853"/>
<path d="M48.9619 42.6968H51.4696V43.371H49.9074V44.1027H51.3792V44.7687H49.9074V45.5745H51.519V46.2487H48.9619V42.6968Z" fill="#007853"/>
<path d="M48.8468 38.0266L28.5138 2.87756C28.2178 2.34313 27.6423 1.97314 26.9845 1.97314C26.3268 1.97314 25.7512 2.34313 25.4552 2.88579L11.1408 27.8478C15.6711 28.1026 17.8581 26.0718 19.9712 24.0985C21.854 22.3472 23.7944 20.5384 27.0339 20.5384C31.2189 20.5384 33.3566 24.4356 33.447 24.6083C33.7348 25.1921 33.5046 25.9074 32.9208 26.2034C32.337 26.4994 31.6464 26.2691 31.3257 25.6854C31.2024 25.4634 29.6238 22.9228 27.0421 22.9228C24.7399 22.9228 23.3504 24.2136 21.5991 25.8416C19.297 27.9875 15.8848 30.1088 10.2117 29.4839L5.28669 38.0841C5.14692 38.339 5.0647 38.6268 5.0647 38.9392C5.0647 39.9012 5.84579 40.6823 6.80776 40.6823H27.2887C27.0503 40.3534 24.5837 36.8673 24.5837 36.8673C23.5477 35.264 24.4028 33.932 24.6824 33.5127L27.6587 28.744C27.8314 28.4726 28.0945 28.2835 28.3987 28.2177C28.7112 28.1437 29.0318 28.2013 29.2949 28.3657C29.854 28.7111 30.0184 29.451 29.6731 30.0019L26.6639 34.82C26.4501 35.1489 26.3843 35.2722 26.5981 35.6093C27.1654 36.5137 29.9116 40.6001 29.9691 40.6823H47.3669C48.3288 40.6823 49.1099 39.9012 49.1099 38.9392C49.1099 38.6021 49.0195 38.2897 48.8468 38.0266ZM40.6413 28.4315C40.3206 28.7686 39.9177 28.8426 39.5477 28.6371C39.2271 28.4644 38.5529 28.1684 37.6813 28.1684C36.8098 28.1684 35.5683 28.4397 34.6885 29.4922L30.5775 34.6556C30.5118 34.746 30.2569 34.9351 29.9609 34.9433C29.7307 34.9598 29.5333 34.8693 29.3689 34.6885C29.2209 34.5158 29.1634 34.3267 29.1634 34.154C29.1634 33.9814 29.2209 33.8169 29.2949 33.6936C31.112 30.6186 32.0082 29.0975 32.0082 29.0893C33.4799 26.6802 35.3381 26.0554 36.9825 25.9978C36.8345 25.4716 36.2014 23.2106 36.2014 23.2023C36.1356 22.9557 36.0452 22.5281 36.448 22.2732C36.9414 21.9608 37.3442 22.2486 37.5005 22.5035L40.7399 27.4202C40.8879 27.6422 40.9208 28.152 40.6413 28.4397" fill="#007853"/>
<path d="M37.5004 22.4872C37.3442 22.2323 36.9413 21.9446 36.448 22.257C36.0451 22.5119 36.1356 22.9394 36.2014 23.1943C36.2014 23.1943 36.8344 25.4554 36.9824 25.9898C35.338 26.0473 33.4799 26.6722 32.0081 29.0812C32.0081 29.0812 31.1119 30.6023 29.2949 33.6856C29.2209 33.8089 29.1633 33.9733 29.1633 34.146C29.1633 34.3187 29.2209 34.516 29.3689 34.6804C29.5333 34.8613 29.7306 34.9518 29.9609 34.9353C30.2569 34.9189 30.5117 34.738 30.5775 34.6475L34.6885 29.4841C35.5683 28.4399 36.7687 28.1604 37.6813 28.1604C38.594 28.1604 39.227 28.4564 39.5477 28.629C39.9259 28.8346 40.3206 28.7606 40.6412 28.4235C40.9208 28.1357 40.8879 27.626 40.7399 27.404L37.5004 22.4872Z" fill="#FFA400"/>
<path d="M21.591 25.8501C23.3423 24.2221 24.7236 22.9313 27.034 22.9313C29.6157 22.9313 31.1943 25.4718 31.3176 25.6938C31.6465 26.2776 32.3289 26.5078 32.9127 26.2118C33.4964 25.9158 33.7349 25.2005 33.4389 24.6168C33.3484 24.4359 31.2107 20.5469 27.0257 20.5469C23.7863 20.5469 21.8377 22.3557 19.963 24.107C17.85 26.0803 15.6629 28.1029 11.1326 27.8562L10.1953 29.4924C15.8767 30.1255 19.2806 27.996 21.5828 25.8501" fill="#FFA400"/>
<path d="M26.6558 34.8201L29.665 30.002C30.0104 29.4429 29.8459 28.7112 29.2868 28.3659C29.0155 28.1932 28.6948 28.1439 28.3906 28.2179C28.0782 28.2919 27.8151 28.481 27.6506 28.7441L24.6743 33.5128C24.3947 33.9404 23.5396 35.2641 24.5756 36.8674C24.5756 36.8674 27.0422 40.3453 27.2807 40.6824H29.9692C29.9117 40.6002 27.1655 36.5139 26.5982 35.6094C26.3845 35.2723 26.442 35.149 26.664 34.8201" fill="#FFA400"/>
</g>
<defs>
<clipPath id="clip0_2930_66634">
<rect width="54.1254" height="48" fill="white"/>
</clipPath>
</defs>
</svg>
